<svg width="16" height="21" viewBox="0 0 16 21" fill="none" xmlns="http://www.w3.org/2000/svg">
<path d="M1.78922 19.4658C1.8123 20.0171 2.26592 20.4521 2.81757 20.4521H12.4263C12.9779 20.4521 13.4315 20.0171 13.4546 19.4658L14.1408 4.98022H1.10303L1.78922 19.4658ZM9.79552 8.5782C9.79552 8.34738 9.98268 8.16017 10.2136 8.16017H10.8823C11.113 8.16017 11.3003 8.34733 11.3003 8.5782V16.8542C11.3003 17.085 11.1132 17.2722 10.8823 17.2722H10.2136C9.98278 17.2722 9.79552 17.0851 9.79552 16.8542V8.5782ZM6.86957 8.5782C6.86957 8.34738 7.05672 8.16017 7.28759 8.16017H7.95625C8.18702 8.16017 8.37428 8.34733 8.37428 8.5782V16.8542C8.37428 17.085 8.18717 17.2722 7.95625 17.2722H7.28759C7.05677 17.2722 6.86957 17.0851 6.86957 16.8542V8.5782ZM3.94351 8.5782C3.94351 8.34738 4.13067 8.16017 4.36154 8.16017H5.03025C5.26107 8.16017 5.44827 8.34733 5.44827 8.5782V16.8542C5.44827 17.085 5.26112 17.2722 5.03025 17.2722H4.36154C4.13072 17.2722 3.94351 17.0851 3.94351 16.8542V8.5782Z" fill="#4AAC7D"/>
<path d="M14.5975 1.05359H10.1647V0.215545C10.1647 0.096532 10.0682 0 9.94916 0H5.29424C5.17523 0 5.07875 0.096532 5.07875 0.215545V1.05354H0.645884C0.289146 1.05354 0 1.34274 0 1.69948V3.7286H15.2434V1.69953C15.2434 1.34279 14.9543 1.05359 14.5975 1.05359Z" fill="#4AAC7D"/>
</svg>
